# xmcd
#
# Track frame offsets:
#       150
#       12600
#       21453
#       32891
#       45702
#       58214
#       69140
#       81366
#       90031
#       101433
#       110808
#       121546
#       135410
#       148162
#       163103
#       175563
#       189272
#       204685
#       217635
#       232671
#       242948
#       259862
#
# Disc length: 3752 seconds
#
# Revision: 0
# Processed by: cddbd v1.5.2PL0 Copyright (c) Steve Scherf et al.
# Submitted via: CD-DA_X-Tractor v0.24
#
DISCID=260ea616
DTITLE=Solomon Burke - The Platinum Collection
DYEAR=2007
DGENRE=Soul
TTITLE0=Everybody Needs Somebody To Love
TTITLE1=Got To Get You Off My Mind
TTITLE2=If You Need Me
TTITLE3=I Wish I Knew
TTITLE4=Tonight's The Night
TTITLE5=Down In The Valley
TTITLE6=Just Out Of Reach
TTITLE7=Stupidity
TTITLE8=Cry To Me
TTITLE9=Home In Your Heart
TTITLE10=Looking For My Baby
TTITLE11=I'm Hanging Up My Heart For You
TTITLE12=You're Good For Me
TTITLE13=Baby Come On Home
TTITLE14=The Price
TTITLE15=Take Me
TTITLE16=Keep A Light In The Window
TTITLE17=Someone Is Watching
TTITLE18=Get Out Of My Life Woman
TTITLE19=Maggie's Farm
TTITLE20=Since I Met You Baby
TTITLE21=What'd I Say
EXTD=
EXTT0=
EXTT1=
EXTT2=
EXTT3=
EXTT4=
EXTT5=
EXTT6=
EXTT7=
EXTT8=
EXTT9=
EXTT10=
EXTT11=
EXTT12=
EXTT13=
EXTT14=
EXTT15=
EXTT16=
EXTT17=
EXTT18=
EXTT19=
EXTT20=
EXTT21=
PLAYORDER=
